Coordinates
version=1
nRows=43
nColumns=12
inDegrees=yes

Units are S.I. units (second, meters, Newtons, ...)
Angles are in degrees

endheader
time	SC_y	SC_z	SC_x	AC_y	AC_z	AC_x	GH_y	GH_z	GH_yy	EL_x	PS_y
       0.0              -22.09          14.29          21.87          64.34         -19.85         -16.01          40.56          -13.5         -24.49          136.5          148.9
    0.0301              -22.09          14.29          21.87          64.33         -19.85         -16.01          40.53         -13.48         -24.49          136.4          148.9
   0.06021               -22.1          14.29          21.88          64.33         -19.85         -16.01          40.49         -13.47         -24.49          136.4          148.9
   0.09031               -22.1          14.28          21.88          64.33         -19.85          -16.0          40.46         -13.46         -24.49          136.4          148.9
    0.1204               -22.1          14.28          21.88          64.32         -19.85          -16.0          40.42         -13.44         -24.49          136.4          148.9
    0.1505               -22.1          14.28          21.88          64.32         -19.85          -16.0          40.38         -13.42         -24.49          136.4          148.8
    0.1806              -22.11          14.27          21.88          64.31         -19.85         -15.99          40.34          -13.4         -24.49          136.3          148.8
    0.2107              -22.11          14.27          21.88          64.31         -19.85         -15.99           40.3         -13.39         -24.49          136.3          148.8
    0.2408              -22.12          14.27          21.88           64.3         -19.84         -15.98          40.25         -13.36         -24.49          136.3          148.8
    0.2709              -22.12          14.26          21.88           64.3         -19.84         -15.98           40.2         -13.34         -24.49          136.3          148.8
     0.301              -22.13          14.26          21.88          64.29         -19.84         -15.97          40.15         -13.32         -24.49          136.2          148.7
    0.3312              -22.13          14.25          21.88          64.29         -19.84         -15.96          40.09         -13.29         -24.49          136.2          148.7
    0.3613              -22.14          14.25          21.88          64.28         -19.84         -15.96          40.03         -13.27         -24.49          136.2          148.7
    0.3914              -22.14          14.24          21.88          64.27         -19.84         -15.95          39.96         -13.24         -24.49          136.1          148.6
    0.4215              -22.15          14.24          21.88          64.26         -19.83         -15.94          39.88          -13.2         -24.49          136.1          148.6
    0.4516              -22.16          14.23          21.88          64.26         -19.83         -15.93           39.8         -13.17         -24.49          136.0          148.5
    0.4817              -22.16          14.22          21.88          64.25         -19.83         -15.93          39.72         -13.13         -24.49          136.0          148.5
    0.5118              -22.17          14.21          21.88          64.24         -19.82         -15.92          39.62         -13.09         -24.49          135.9          148.4
    0.5419              -22.18          14.21          21.88          64.23         -19.82          -15.9          39.52         -13.04         -24.49          135.9          148.4
     0.572              -22.19           14.2          21.88          64.21         -19.82         -15.89           39.4         -12.99         -24.49          135.8          148.3
    0.6021               -22.2          14.19          21.89           64.2         -19.81         -15.88          39.28         -12.94         -24.49          135.8          148.3
    0.6322              -22.21          14.17          21.89          64.18         -19.81         -15.87          39.14         -12.88         -24.49          135.7          148.2
    0.6623              -22.23          14.16          21.89          64.17          -19.8         -15.85          38.99         -12.81         -24.49          135.6          148.1
    0.6924              -22.24          14.15          21.89          64.15          -19.8         -15.83          38.82         -12.74         -24.49          135.5          148.0
    0.7225              -22.26          14.13          21.89          64.13         -19.79         -15.81          38.64         -12.66         -24.49          135.4          147.9
    0.7526              -22.27          14.12          21.89          64.11         -19.79         -15.79          38.43         -12.57         -24.49          135.3          147.8
    0.7827              -22.29           14.1          21.89          64.08         -19.78         -15.77           38.2         -12.47          -24.5          135.2          147.7
    0.8128              -22.32          14.07           21.9          64.05         -19.77         -15.74          37.94         -12.35          -24.5          135.0          147.6
    0.8429              -22.34          14.05           21.9          64.02         -19.76         -15.71          37.64         -12.22          -24.5          134.9          147.4
     0.873              -22.37          14.02           21.9          63.98         -19.75         -15.67           37.3         -12.07          -24.5          134.7          147.2
    0.9031              -22.41          13.99           21.9          63.94         -19.74         -15.63          36.92         -11.91          -24.5          134.5          147.0
    0.9332              -22.44          13.95          21.91           63.9         -19.72         -15.59          36.48         -11.71          -24.5          134.2          146.8
    0.9634              -22.49          13.91          21.91          63.84         -19.71         -15.53          35.97         -11.49          -24.5          133.9          146.5
    0.9935              -22.54          13.86          21.92          63.78         -19.69         -15.47          35.38         -11.23          -24.5          133.6          146.2
     1.024               -22.6           13.8          21.92           63.7         -19.67          -15.4          34.69         -10.93         -24.51          133.2          145.9
     1.054              -22.67          13.74          21.93          63.61         -19.64         -15.32          33.88         -10.57         -24.51          132.8          145.4
     1.084              -22.75          13.66          21.94          63.51         -19.61         -15.21          32.91         -10.15         -24.51          132.3          144.9
     1.114              -22.86          13.56          21.95          63.38         -19.57         -15.09          31.75         -9.644         -24.52          131.6          144.3
     1.144              -22.98          13.44          21.96          63.23         -19.53         -14.95          30.34          -9.03         -24.52          130.9          143.6
     1.174              -23.13           13.3          21.97          63.04         -19.48         -14.77          28.63         -8.279         -24.53          129.9          142.7
     1.204              -23.31          13.12          21.99          62.81         -19.41         -14.55          26.51         -7.353         -24.53          128.8          141.6
     1.234              -23.54           12.9          22.01          62.53         -19.32         -14.27          23.87         -6.199         -24.54          127.3          140.2
     1.264              -23.83          12.63          22.04          62.17         -19.22         -13.92          20.55         -4.744         -24.55          125.5          138.4
